<?xml version="1.0" encoding="UTF-8" standalone="no"?>
<!-- Created with Inkscape (http://www.inkscape.org/) -->

<svg
   xmlns:dc="http://purl.org/dc/elements/1.1/"
   xmlns:cc="http://creativecommons.org/ns#"
   xmlns:rdf="http://www.w3.org/1999/02/22-rdf-syntax-ns#"
   xmlns:svg="http://www.w3.org/2000/svg"
   xmlns="http://www.w3.org/2000/svg"
   xmlns:sodipodi="http://sodipodi.sourceforge.net/DTD/sodipodi-0.dtd"
   xmlns:inkscape="http://www.inkscape.org/namespaces/inkscape"
   width="256"
   height="256"
   viewBox="0 0 67.733332 67.733335"
   version="1.1"
   id="svg8"
   inkscape:version="0.92.1 r15371"
   sodipodi:docname="arrow.svg">
  <defs
     id="defs2" />
  <sodipodi:namedview
     id="base"
     pagecolor="#ffffff"
     bordercolor="#666666"
     borderopacity="1.0"
     inkscape:pageopacity="0.0"
     inkscape:pageshadow="2"
     inkscape:zoom="2"
     inkscape:cx="244.6771"
     inkscape:cy="185.70887"
     inkscape:document-units="mm"
     inkscape:current-layer="layer1"
     showgrid="false"
     units="px"
     inkscape:window-width="1920"
     inkscape:window-height="1057"
     inkscape:window-x="1912"
     inkscape:window-y="-8"
     inkscape:window-maximized="1" />
  <metadata
     id="metadata5">
    <rdf:RDF>
      <cc:Work
         rdf:about="">
        <dc:format>image/svg+xml</dc:format>
        <dc:type
           rdf:resource="http://purl.org/dc/dcmitype/StillImage" />
        <dc:title></dc:title>
      </cc:Work>
    </rdf:RDF>
  </metadata>
  <g
     inkscape:label="レイヤー 1"
     inkscape:groupmode="layer"
     id="layer1"
     transform="translate(0,-229.26663)">
    <path
       style="opacity:1;fill:#404040;fill-opacity:1;fill-rule:evenodd;stroke:none;stroke-width:37.79527283;stroke-linecap:butt;stroke-linejoin:miter;stroke-miterlimit:4;stroke-dasharray:none;stroke-dashoffset:0;stroke-opacity:1;paint-order:normal"
       d="M 0 29 L 0 129 L 0 150.75 A 26.25 26.25 0 0 0 0.095703125 152.98828 A 26.25 26.25 0 0 0 0.44921875 155.58789 A 26.25 26.25 0 0 0 1.0625 158.14062 A 26.25 26.25 0 0 0 1.9257812 160.61719 A 26.25 26.25 0 0 0 3.03125 162.99805 A 26.25 26.25 0 0 0 4.3710938 165.25391 A 26.25 26.25 0 0 0 5.9277344 167.36523 A 26.25 26.25 0 0 0 7.6875 169.31055 A 26.25 26.25 0 0 0 9.3398438 170.82617 A 26.25 26.25 0 0 0 11.427734 172.41406 A 26.25 26.25 0 0 0 13.666016 173.78711 A 26.25 26.25 0 0 0 16.027344 174.92773 A 26.25 26.25 0 0 0 18.492188 175.82812 A 26.25 26.25 0 0 0 21.035156 176.47656 A 26.25 26.25 0 0 0 23.628906 176.86914 A 26.25 26.25 0 0 0 26.25 177 L 160 177 L 160 227 L 256 153 L 160 79 L 160 129 L 48 129 L 48 29 L 0 29 z "
       transform="matrix(0.26458333,0,0,0.26458333,0,229.26663)"
       id="path4569" />
  </g>
</svg>
